<svg width="27" height="22" viewBox="0 0 27 22" fill="none" xmlns="http://www.w3.org/2000/svg">
<path d="M0.329664 2.09926C0.108086 1.86851 0 1.57585 0 1.22128C0 0.866718 0.108086 0.57406 0.329664 0.34331C0.551241 0.112561 0.832266 0 1.17274 0H25.8273C26.1677 0 26.4488 0.112561 26.6703 0.34331C26.8919 0.57406 27 0.866718 27 1.22128C27 1.57585 26.8919 1.86851 26.6703 2.09926C26.4488 2.33001 26.1677 2.44257 25.8273 2.44257H1.17274C0.832266 2.44257 0.551241 2.33001 0.329664 2.09926ZM26.6703 10.1248C26.8919 10.3556 27 10.6482 27 11.0028C27 11.3574 26.8919 11.65 26.6703 11.8808C26.4488 12.1115 26.1677 12.2241 25.8273 12.2241H1.17274C0.832266 12.2241 0.551241 12.1115 0.329664 11.8808C0.108086 11.65 0 11.3574 0 11.0028C0 10.6482 0.108086 10.3556 0.329664 10.1248C0.551241 9.89409 0.832266 9.78153 1.17274 9.78153H25.8273C26.1677 9.78153 26.4488 9.89409 26.6703 10.1248ZM26.6703 19.9007C26.8919 20.1315 27 20.4242 27 20.7787C27 21.1333 26.8919 21.4259 26.6703 21.6567C26.4488 21.8874 26.1677 22 25.8273 22H1.17274C0.832266 22 0.551241 21.8874 0.329664 21.6567C0.108086 21.4259 0 21.1333 0 20.7787C0 20.4242 0.108086 20.1315 0.329664 19.9007C0.551241 19.67 0.832266 19.5574 1.17274 19.5574H25.8273C26.1677 19.5574 26.4488 19.6756 26.6703 19.9007Z" fill="white"/>
</svg>
