<svg width="20" height="20" viewBox="0 0 20 20" fill="none" xmlns="http://www.w3.org/2000/svg">
<path d="M17.2233 10C17.2233 9.77 17.2133 9.55 17.1933 9.32L19.0533 7.91C19.4533 7.61 19.5633 7.05 19.3133 6.61L17.4433 3.38C17.3234 3.16818 17.1295 3.00814 16.8987 2.93062C16.668 2.8531 16.4168 2.86356 16.1933 2.96L14.0433 3.87C13.6733 3.61 13.2833 3.38 12.8733 3.19L12.5833 0.88C12.5233 0.38 12.0933 0 11.5933 0H7.8633C7.3533 0 6.9233 0.38 6.8633 0.88L6.5733 3.19C6.1633 3.38 5.7733 3.61 5.4033 3.87L3.2533 2.96C2.7933 2.76 2.2533 2.94 2.0033 3.38L0.133298 6.62C-0.116702 7.06 -0.00670207 7.61 0.393298 7.92L2.2533 9.33C2.21184 9.77905 2.21184 10.231 2.2533 10.68L0.393298 12.09C-0.00670207 12.39 -0.116702 12.95 0.133298 13.39L2.0033 16.62C2.2533 17.06 2.7933 17.24 3.2533 17.04L5.4033 16.13C5.7733 16.39 6.1633 16.62 6.5733 16.81L6.8633 19.12C6.9233 19.62 7.3533 20 7.8533 20H11.5833C12.0833 20 12.5133 19.62 12.5733 19.12L12.8633 16.81C13.2733 16.62 13.6633 16.39 14.0333 16.13L16.1833 17.04C16.6433 17.24 17.1833 17.06 17.4333 16.62L19.3033 13.39C19.5533 12.95 19.4433 12.4 19.0433 12.09L17.1833 10.68C17.2133 10.45 17.2233 10.23 17.2233 10ZM9.7633 13.5C7.8333 13.5 6.2633 11.93 6.2633 10C6.2633 8.07 7.8333 6.5 9.7633 6.5C11.6933 6.5 13.2633 8.07 13.2633 10C13.2633 11.93 11.6933 13.5 9.7633 13.5Z" fill="white"/>
</svg>
